<svg xmlns="http://www.w3.org/2000/svg" xmlns:xlink="http://www.w3.org/1999/xlink" width="569" height="622" viewBox="0 0 569 622">
  <defs>
    <clipPath id="clip-path">
      <rect id="Rectangle_5" data-name="Rectangle 5" width="559" height="612" fill="none" stroke="rgba(97,93,245,0)" stroke-width="1"/>
    </clipPath>
    <clipPath id="clip-path-2">
      <rect id="Rectangle_9" data-name="Rectangle 9" width="559" height="612"/>
    </clipPath>
  </defs>
  <g id="Groupe_3074" data-name="Groupe 3074" transform="translate(-8727 -5653)">
    <g id="Groupe_3073" data-name="Groupe 3073" transform="translate(-854)">
      <g id="bbTea" transform="translate(9586 5658)" clip-path="url(#clip-path)">
        <g id="Groupe_3119" data-name="Groupe 3119" transform="translate(-44 -48.311)">
          <g id="Groupe_12" data-name="Groupe 12" transform="translate(39.515 49.432)">
            <g id="Tracé_22621" data-name="Tracé 22621" transform="translate(4.48 562.88)">
              <path id="Tracé_167" data-name="Tracé 167" d="M0,0H559V48H0Z" fill="none" stroke="rgba(97,93,245,0)" stroke-width="1"/>
              <path id="Tracé_168" data-name="Tracé 168" d="M1,1V47H558V1H1M0,0H559V48H0Z" fill="none" stroke="rgba(97,93,245,0)" stroke-width="1"/>
            </g>
            <rect id="Rectangle_21" data-name="Rectangle 21" width="537" height="18" rx="9" transform="translate(14.485 544.879)" fill="none" stroke="rgba(97,93,245,0)" stroke-width="1"/>
            <path id="Rectangle_22" data-name="Rectangle 22" d="M0,0H511V404H0Z" transform="translate(28.485 140.879)" fill="none" stroke="rgba(97,93,245,0)" stroke-width="1"/>
            <path id="Rectangle_23" data-name="Rectangle 23" d="M41.162,0H419.849a41.162,41.162,0,0,1,41.162,41.162V322.707H0V41.162A41.162,41.162,0,0,1,41.162,0Z" transform="translate(51.864 222.273)" fill="none" stroke="rgba(97,93,245,0)" stroke-width="1"/>
            <g id="Tracé_22622" data-name="Tracé 22622" transform="translate(4.41 -0.64)">
              <path id="Tracé_169" data-name="Tracé 169" d="M18.2,0H540.8C550.851,0,559,7.774,559,17.367V124.05c0,9.593-8.149,17.367-18.2,17.367H18.2C8.149,141.417,0,133.643,0,124.05V17.367C0,7.774,8.149,0,18.2,0Z" fill="none" stroke="rgba(97,93,245,0)" stroke-width="1"/>
              <path id="Tracé_170" data-name="Tracé 170" d="M18.2,1A17.535,17.535,0,0,0,6.021,5.81,15.872,15.872,0,0,0,1,17.367V124.05a15.872,15.872,0,0,0,5.021,11.557,17.535,17.535,0,0,0,12.179,4.81H540.8a17.535,17.535,0,0,0,12.179-4.81A15.872,15.872,0,0,0,558,124.05V17.367A15.872,15.872,0,0,0,552.979,5.81,17.535,17.535,0,0,0,540.8,1H18.2m0-1H540.8C550.851,0,559,7.774,559,17.367V124.05c0,9.593-8.149,17.367-18.2,17.367H18.2C8.149,141.417,0,133.643,0,124.05V17.367C0,7.774,8.149,0,18.2,0Z" fill="none" stroke="rgba(97,93,245,0)" stroke-width="1"/>
            </g>
            <ellipse id="Ellipse_23" data-name="Ellipse 23" cx="44.5" cy="44" rx="44.5" ry="44" transform="translate(241.485 23.879)" fill="none" stroke="rgba(97,93,245,0)" stroke-width="1"/>
            <circle id="Ellipse_24" data-name="Ellipse 24" cx="36.5" cy="36.5" r="36.5" transform="translate(249.485 31.879)" fill="none" stroke="rgba(97,93,245,0)" stroke-width="1"/>
            <ellipse id="Ellipse_25" data-name="Ellipse 25" cx="20.5" cy="21.5" rx="20.5" ry="21.5" transform="translate(28.485 41.879)" fill="none" stroke="rgba(97,93,245,0)" stroke-width="1"/>
            <circle id="Ellipse_26" data-name="Ellipse 26" cx="21.5" cy="21.5" r="21.5" transform="translate(95.485 41.879)" fill="none" stroke="rgba(97,93,245,0)" stroke-width="1"/>
            <rect id="Rectangle_25" data-name="Rectangle 25" width="15" height="14" transform="translate(41.485 84.879)" fill="none" stroke="rgba(97,93,245,0)" stroke-width="1"/>
            <rect id="Rectangle_26" data-name="Rectangle 26" width="13" height="14" transform="translate(110.485 84.879)" fill="none" stroke="rgba(97,93,245,0)" stroke-width="1"/>
          </g>
          <g id="Groupe_13" data-name="Groupe 13" transform="translate(280.669 190.182)">
            <rect id="Rectangle_32" data-name="Rectangle 32" width="87" height="25" transform="translate(0.331 0.129)" fill="none" stroke="rgba(97,93,245,0)" stroke-width="1"/>
            <path id="Tracé_36" data-name="Tracé 36" d="M8145.063-10226v15.527s33.045,21.507,74.858,0c-.577-.191,0-15.527,0-15.527Z" transform="translate(-8138.729 10249.084)" fill="none" stroke="rgba(97,93,245,0)" stroke-width="1"/>
            <rect id="Rectangle_33" data-name="Rectangle 33" width="14" height="13" transform="translate(36.331 44.129)" fill="none" stroke="rgba(97,93,245,0)" stroke-width="1"/>
          </g>
        </g>
        <g id="Groupe_5418" data-name="Groupe 5418" transform="translate(160 247.421)">
          <path id="Rectangle_589" data-name="Rectangle 589" d="M0,0H126V13a2,2,0,0,1-2,2H2a2,2,0,0,1-2-2Z" transform="translate(49 282.579)" fill="none" stroke="rgba(97,93,245,0)" stroke-width="1"/>
          <rect id="Rectangle_590" data-name="Rectangle 590" width="225" height="15" transform="translate(0 -0.421)" fill="none" stroke="rgba(97,93,245,0)" stroke-width="1"/>
          <path id="Tracé_22624" data-name="Tracé 22624" d="M-15005.433-4745l30.563,268.808h141.024l33.933-268.808Z" transform="translate(15014.461 4759.469)" fill="none" stroke="rgba(97,93,245,0)" stroke-width="1"/>
        </g>
        <rect id="Rectangle_604" data-name="Rectangle 604" width="21.961" height="333.134" rx="3" transform="matrix(0.985, 0.174, -0.174, 0.985, 334.069, 193.752)" fill="none" stroke="rgba(97,93,245,0)" stroke-width="1"/>
        <g id="Groupe_4338" data-name="Groupe 4338" transform="matrix(0.985, 0.174, -0.174, 0.985, 332.916, 199.799)">
          <path id="Tracé_22636" data-name="Tracé 22636" d="M0,0,22.345,12.5V29.6L0,17.947Z" transform="translate(0 129.853)" fill="none" stroke="rgba(97,93,245,0)" stroke-width="1"/>
          <path id="Tracé_22869" data-name="Tracé 22869" d="M0,0,22.345,12.5V29.6L0,17.947Z" transform="translate(0 97.39)" fill="none" stroke="rgba(97,93,245,0)" stroke-width="1"/>
          <path id="Tracé_22870" data-name="Tracé 22870" d="M0,0,22.345,12.5V29.6L0,17.947Z" transform="translate(0 64.926)" fill="none" stroke="rgba(97,93,245,0)" stroke-width="1"/>
          <path id="Tracé_22871" data-name="Tracé 22871" d="M0,0,22.345,12.5V29.6L0,17.947Z" transform="translate(0 32.463)" fill="none" stroke="rgba(97,93,245,0)" stroke-width="1"/>
          <path id="Tracé_22872" data-name="Tracé 22872" d="M0,0,22.345,12.5V29.6L0,17.947Z" fill="none" stroke="rgba(97,93,245,0)" stroke-width="1"/>
          <path id="Tracé_22637" data-name="Tracé 22637" d="M0,0,22.345,12.5V29.6L0,17.947Z" transform="translate(0 160.116)" fill="none" stroke="rgba(97,93,245,0)" stroke-width="1"/>
          <path id="Tracé_22638" data-name="Tracé 22638" d="M0,0,22.345,12.5V29.6L0,17.947Z" transform="translate(0 192.53)" fill="none" stroke="rgba(97,93,245,0)" stroke-width="1"/>
          <path id="Tracé_22635" data-name="Tracé 22635" d="M0,0,22.345,12.5V29.6L0,17.947Z" transform="translate(0 224.942)" fill="none" stroke="rgba(97,93,245,0)" stroke-width="1"/>
          <path id="Tracé_22633" data-name="Tracé 22633" d="M0,0,22.345,12.5V29.6L0,17.947Z" transform="translate(0 257.356)" fill="none" stroke="rgba(97,93,245,0)" stroke-width="1"/>
          <path id="Tracé_22634" data-name="Tracé 22634" d="M0,0,22.345,12.5V29.6L0,17.947Z" transform="translate(0 288.731)" fill="none" stroke="rgba(97,93,245,0)" stroke-width="1"/>
        </g>
        <g id="Rectangle_784" data-name="Rectangle 784" transform="translate(160 247)" fill="none" stroke="rgba(97,93,245,0)" stroke-width="1" opacity="0.322">
          <rect width="225" height="15" stroke="none"/>
          <rect x="0.5" y="0.5" width="224" height="14" fill="none"/>
        </g>
        <g id="Groupe_5420" data-name="Groupe 5420" transform="translate(201.738 446.837)">
          <circle id="Ellipse_434" data-name="Ellipse 434" cx="10.5" cy="10.5" r="10.5" transform="translate(0.262 0.162)" fill="none" stroke="rgba(97,93,245,0)" stroke-width="1"/>
          <circle id="Ellipse_435" data-name="Ellipse 435" cx="10.5" cy="10.5" r="10.5" transform="translate(16.262 26.162)" fill="none" stroke="rgba(97,93,245,0)" stroke-width="1"/>
          <circle id="Ellipse_436" data-name="Ellipse 436" cx="10.5" cy="10.5" r="10.5" transform="translate(44.262 7.162)" fill="none" stroke="rgba(97,93,245,0)" stroke-width="1"/>
          <ellipse id="Ellipse_437" data-name="Ellipse 437" cx="10" cy="10.5" rx="10" ry="10.5" transform="translate(52.262 37.162)" fill="none" stroke="rgba(97,93,245,0)" stroke-width="1"/>
          <circle id="Ellipse_441" data-name="Ellipse 441" cx="10.5" cy="10.5" r="10.5" transform="translate(23.262 52.162)" fill="none" stroke="rgba(97,93,245,0)" stroke-width="1"/>
          <circle id="Ellipse_438" data-name="Ellipse 438" cx="10.5" cy="10.5" r="10.5" transform="translate(74.262 16.162)" fill="none" stroke="rgba(97,93,245,0)" stroke-width="1"/>
          <circle id="Ellipse_439" data-name="Ellipse 439" cx="10.5" cy="10.5" r="10.5" transform="translate(118.262 5.162)" fill="none" stroke="rgba(97,93,245,0)" stroke-width="1"/>
          <circle id="Ellipse_440" data-name="Ellipse 440" cx="10.5" cy="10.5" r="10.5" transform="translate(102.262 26.162)" fill="none" stroke="rgba(97,93,245,0)" stroke-width="1"/>
          <circle id="Ellipse_443" data-name="Ellipse 443" cx="10.5" cy="10.5" r="10.5" transform="translate(111.262 52.162)" fill="none" stroke="rgba(97,93,245,0)" stroke-width="1"/>
          <circle id="Ellipse_442" data-name="Ellipse 442" cx="10.5" cy="10.5" r="10.5" transform="translate(74.262 52.162)" fill="none" stroke="rgba(97,93,245,0)" stroke-width="1"/>
        </g>
        <path id="Tracé_22873" data-name="Tracé 22873" d="M-16072.125-2776.821h187.958l-27.119,232.507h-135.105Z" transform="translate(16249.207 3070.182)" fill="none" stroke="rgba(97,93,245,0)" stroke-width="1" opacity="0.91"/>
        <path id="Tracé_22876" data-name="Tracé 22876" d="M-16820.047-3277.232h182.789l-7.9,56.076h-168.064Z" transform="translate(17000.129 3635.95)" fill="none" stroke="rgba(97,93,245,0)" stroke-width="1"/>
        <g id="Groupe_2983" data-name="Groupe 2983" transform="translate(256.156 365.491)">
          <path id="Tracé_121" data-name="Tracé 121" d="M3982.28-2036.091l-18.617,10.921v21.527l18.617,10.821v-7.14l-12.985-6.831v-15.1l12.985-6.9Z" transform="translate(-3963.662 2036.091)" fill="none" stroke="rgba(97,93,245,0)" stroke-width="1"/>
          <path id="Tracé_143" data-name="Tracé 143" d="M16035.543,5805.6l8.248,3.324v14.96l-8.248,3.177Z" transform="translate(-16011.644 -5794.663)" fill="none" stroke="rgba(97,93,245,0)" stroke-width="1"/>
        </g>
      </g>
      <g id="Rectangle_6" data-name="Rectangle 6" transform="translate(9586 5658)" fill="none" stroke="rgba(97,93,245,0)" stroke-width="1">
        <rect width="559" height="612" stroke="none"/>
        <rect x="0.5" y="0.5" width="558" height="611" fill="none"/>
      </g>
      <g id="Ellipse_22" data-name="Ellipse 22" transform="translate(9581 5653)" fill="none" stroke="rgba(97,93,245,0)" stroke-width="1">
        <circle cx="5.5" cy="5.5" r="5.5" stroke="none"/>
        <circle cx="5.5" cy="5.5" r="5" fill="none"/>
      </g>
      <g id="Ellipse_25-2" data-name="Ellipse 25" transform="translate(9581 6264)" fill="none" stroke="rgba(97,93,245,0)" stroke-width="1">
        <circle cx="5.5" cy="5.5" r="5.5" stroke="none"/>
        <circle cx="5.5" cy="5.5" r="5" fill="none"/>
      </g>
      <g id="Ellipse_23-2" data-name="Ellipse 23" transform="translate(10139 5653)" fill="none" stroke="rgba(97,93,245,0)" stroke-width="1">
        <circle cx="5.5" cy="5.5" r="5.5" stroke="none"/>
        <circle cx="5.5" cy="5.5" r="5" fill="none"/>
      </g>
      <g id="Ellipse_24-2" data-name="Ellipse 24" transform="translate(10139 6264)" fill="none" stroke="rgba(97,93,245,0)" stroke-width="1">
        <circle cx="5.5" cy="5.5" r="5.5" stroke="none"/>
        <circle cx="5.5" cy="5.5" r="5" fill="none"/>
      </g>
      <g id="Ellipse_26-2" data-name="Ellipse 26" transform="translate(10139 5959)" fill="none" stroke="rgba(97,93,245,0)" stroke-width="1">
        <circle cx="5.5" cy="5.5" r="5.5" stroke="none"/>
        <circle cx="5.5" cy="5.5" r="5" fill="none"/>
      </g>
      <g id="Ellipse_27" data-name="Ellipse 27" transform="translate(9581 5959)" fill="none" stroke="rgba(97,93,245,0)" stroke-width="1">
        <circle cx="5.5" cy="5.5" r="5.5" stroke="none"/>
        <circle cx="5.5" cy="5.5" r="5" fill="none"/>
      </g>
    </g>
    <g id="bbTea-2" data-name="bbTea" transform="translate(8732 5658)" clip-path="url(#clip-path-2)">
      <g id="Groupe_3119-2" data-name="Groupe 3119" transform="translate(-44 -48.311)">
        <g id="Groupe_12-2" data-name="Groupe 12" transform="translate(39.515 49.432)">
          <g id="Tracé_22621-2" data-name="Tracé 22621" transform="translate(4.48 562.88)">
            <path id="Tracé_179" data-name="Tracé 179" d="M0,0H559V48H0Z" fill="#fff"/>
            <path id="Tracé_180" data-name="Tracé 180" d="M1,1V47H558V1H1M0,0H559V48H0Z" fill="rgba(112,112,112,0.5)"/>
          </g>
          <rect id="Rectangle_21-2" data-name="Rectangle 21" width="537" height="18" rx="9" transform="translate(14.485 544.879)" fill="#282323"/>
          <path id="Rectangle_22-2" data-name="Rectangle 22" d="M0,0H511V404H0Z" transform="translate(28.485 140.879)" fill="#838096"/>
          <path id="Rectangle_23-2" data-name="Rectangle 23" d="M41.162,0H419.849a41.162,41.162,0,0,1,41.162,41.162V322.707H0V41.162A41.162,41.162,0,0,1,41.162,0Z" transform="translate(51.864 222.273)" fill="#282638"/>
          <g id="Tracé_22622-2" data-name="Tracé 22622" transform="translate(4.41 -0.64)">
            <path id="Tracé_181" data-name="Tracé 181" d="M18.2,0H540.8C550.851,0,559,7.774,559,17.367V124.05c0,9.593-8.149,17.367-18.2,17.367H18.2C8.149,141.417,0,133.643,0,124.05V17.367C0,7.774,8.149,0,18.2,0Z" fill="#fff"/>
            <path id="Tracé_182" data-name="Tracé 182" d="M18.2,1A17.535,17.535,0,0,0,6.021,5.81,15.872,15.872,0,0,0,1,17.367V124.05a15.872,15.872,0,0,0,5.021,11.557,17.535,17.535,0,0,0,12.179,4.81H540.8a17.535,17.535,0,0,0,12.179-4.81A15.872,15.872,0,0,0,558,124.05V17.367A15.872,15.872,0,0,0,552.979,5.81,17.535,17.535,0,0,0,540.8,1H18.2m0-1H540.8C550.851,0,559,7.774,559,17.367V124.05c0,9.593-8.149,17.367-18.2,17.367H18.2C8.149,141.417,0,133.643,0,124.05V17.367C0,7.774,8.149,0,18.2,0Z" fill="rgba(112,112,112,0.5)"/>
          </g>
          <ellipse id="Ellipse_23-3" data-name="Ellipse 23" cx="44.5" cy="44" rx="44.5" ry="44" transform="translate(241.485 23.879)" fill="#282323"/>
          <circle id="Ellipse_24-3" data-name="Ellipse 24" cx="36.5" cy="36.5" r="36.5" transform="translate(249.485 31.879)" fill="#fff"/>
          <ellipse id="Ellipse_25-3" data-name="Ellipse 25" cx="20.5" cy="21.5" rx="20.5" ry="21.5" transform="translate(28.485 41.879)" fill="#282323"/>
          <circle id="Ellipse_26-3" data-name="Ellipse 26" cx="21.5" cy="21.5" r="21.5" transform="translate(95.485 41.879)" fill="#282323"/>
          <rect id="Rectangle_25-2" data-name="Rectangle 25" width="15" height="14" transform="translate(41.485 84.879)" fill="#676564"/>
          <rect id="Rectangle_26-2" data-name="Rectangle 26" width="13" height="14" transform="translate(110.485 84.879)" fill="#676564"/>
        </g>
        <g id="Groupe_13-2" data-name="Groupe 13" transform="translate(280.669 190.182)">
          <rect id="Rectangle_32-2" data-name="Rectangle 32" width="87" height="25" transform="translate(0.331 0.129)" fill="#231f20"/>
          <path id="Tracé_36-2" data-name="Tracé 36" d="M8145.063-10226v15.527s33.045,21.507,74.858,0c-.577-.191,0-15.527,0-15.527Z" transform="translate(-8138.729 10249.084)" fill="#231f20"/>
          <rect id="Rectangle_33-2" data-name="Rectangle 33" width="14" height="13" transform="translate(36.331 44.129)" fill="#231f20"/>
        </g>
      </g>
      <g id="Groupe_5418-2" data-name="Groupe 5418" transform="translate(160 247.421)">
        <path id="Rectangle_589-2" data-name="Rectangle 589" d="M0,0H126V13a2,2,0,0,1-2,2H2a2,2,0,0,1-2-2Z" transform="translate(49 282.579)" fill="rgba(255,255,255,0.2)"/>
        <rect id="Rectangle_590-2" data-name="Rectangle 590" width="225" height="15" transform="translate(0 -0.421)" fill="rgba(255,255,255,0.2)"/>
        <path id="Tracé_22624-2" data-name="Tracé 22624" d="M-15005.433-4745l30.563,268.808h141.024l33.933-268.808Z" transform="translate(15014.461 4759.469)" fill="rgba(255,255,255,0.2)"/>
      </g>
      <rect id="Rectangle_604-2" data-name="Rectangle 604" width="21.961" height="333.134" rx="3" transform="matrix(0.985, 0.174, -0.174, 0.985, 334.069, 193.752)" fill="#fff"/>
      <g id="Groupe_4338-2" data-name="Groupe 4338" transform="matrix(0.985, 0.174, -0.174, 0.985, 332.916, 199.799)">
        <path id="Tracé_22636-2" data-name="Tracé 22636" d="M0,0,22.345,12.5V29.6L0,17.947Z" transform="translate(0 129.853)" fill="#b5bef5"/>
        <path id="Tracé_22869-2" data-name="Tracé 22869" d="M0,0,22.345,12.5V29.6L0,17.947Z" transform="translate(0 97.39)" fill="#b5bef5"/>
        <path id="Tracé_22870-2" data-name="Tracé 22870" d="M0,0,22.345,12.5V29.6L0,17.947Z" transform="translate(0 64.926)" fill="#b5bef5"/>
        <path id="Tracé_22871-2" data-name="Tracé 22871" d="M0,0,22.345,12.5V29.6L0,17.947Z" transform="translate(0 32.463)" fill="#b5bef5"/>
        <path id="Tracé_22872-2" data-name="Tracé 22872" d="M0,0,22.345,12.5V29.6L0,17.947Z" fill="#b5bef5"/>
        <path id="Tracé_22637-2" data-name="Tracé 22637" d="M0,0,22.345,12.5V29.6L0,17.947Z" transform="translate(0 160.116)" fill="#b5bef5"/>
        <path id="Tracé_22638-2" data-name="Tracé 22638" d="M0,0,22.345,12.5V29.6L0,17.947Z" transform="translate(0 192.53)" fill="#b5bef5"/>
        <path id="Tracé_22635-2" data-name="Tracé 22635" d="M0,0,22.345,12.5V29.6L0,17.947Z" transform="translate(0 224.942)" fill="#b5bef5"/>
        <path id="Tracé_22633-2" data-name="Tracé 22633" d="M0,0,22.345,12.5V29.6L0,17.947Z" transform="translate(0 257.356)" fill="#b5bef5"/>
        <path id="Tracé_22634-2" data-name="Tracé 22634" d="M0,0,22.345,12.5V29.6L0,17.947Z" transform="translate(0 288.731)" fill="#b5bef5"/>
      </g>
      <g id="Rectangle_784-2" data-name="Rectangle 784" transform="translate(160 247)" fill="#fff" stroke="#707070" stroke-width="0.5" opacity="0.322">
        <rect width="225" height="15" stroke="none"/>
        <rect x="0.25" y="0.25" width="224.5" height="14.5" fill="none"/>
      </g>
      <g id="Groupe_5420-2" data-name="Groupe 5420" transform="translate(201.738 446.837)">
        <circle id="Ellipse_434-2" data-name="Ellipse 434" cx="10.5" cy="10.5" r="10.5" transform="translate(0.262 0.162)" fill="rgba(0,0,0,0)"/>
        <circle id="Ellipse_435-2" data-name="Ellipse 435" cx="10.5" cy="10.5" r="10.5" transform="translate(16.262 26.162)" fill="rgba(0,0,0,0)"/>
        <circle id="Ellipse_436-2" data-name="Ellipse 436" cx="10.5" cy="10.5" r="10.5" transform="translate(44.262 7.162)" fill="rgba(0,0,0,0)"/>
        <ellipse id="Ellipse_437-2" data-name="Ellipse 437" cx="10" cy="10.5" rx="10" ry="10.5" transform="translate(52.262 37.162)" fill="rgba(0,0,0,0)"/>
        <circle id="Ellipse_441-2" data-name="Ellipse 441" cx="10.5" cy="10.5" r="10.5" transform="translate(23.262 52.162)" fill="rgba(0,0,0,0)"/>
        <circle id="Ellipse_438-2" data-name="Ellipse 438" cx="10.5" cy="10.5" r="10.5" transform="translate(74.262 16.162)" fill="rgba(0,0,0,0)"/>
        <circle id="Ellipse_439-2" data-name="Ellipse 439" cx="10.5" cy="10.5" r="10.5" transform="translate(118.262 5.162)" fill="rgba(0,0,0,0)"/>
        <circle id="Ellipse_440-2" data-name="Ellipse 440" cx="10.5" cy="10.5" r="10.5" transform="translate(102.262 26.162)" fill="rgba(0,0,0,0)"/>
        <circle id="Ellipse_443-2" data-name="Ellipse 443" cx="10.5" cy="10.5" r="10.5" transform="translate(111.262 52.162)" fill="rgba(0,0,0,0)"/>
        <circle id="Ellipse_442-2" data-name="Ellipse 442" cx="10.5" cy="10.5" r="10.5" transform="translate(74.262 52.162)" fill="rgba(0,0,0,0)"/>
      </g>
      <path id="Tracé_22873-2" data-name="Tracé 22873" d="M-16072.125-2776.821h187.958l-27.119,232.507h-135.105Z" transform="translate(16249.207 3070.182)" fill="#d0dafc" opacity="0.91"/>
      <path id="Tracé_22876-2" data-name="Tracé 22876" d="M-16820.047-3277.232h182.789l-7.9,56.076h-168.064Z" transform="translate(17000.129 3635.95)" fill="#848ee2"/>
      <g id="Groupe_2983-2" data-name="Groupe 2983" transform="translate(256.156 365.491)">
        <path id="Tracé_121-2" data-name="Tracé 121" d="M3982.28-2036.091l-18.617,10.921v21.527l18.617,10.821v-7.14l-12.985-6.831v-15.1l12.985-6.9Z" transform="translate(-3963.662 2036.091)" fill="#fff"/>
        <path id="Tracé_143-2" data-name="Tracé 143" d="M16035.543,5805.6l8.248,3.324v14.96l-8.248,3.177Z" transform="translate(-16011.644 -5794.663)" fill="#fff"/>
      </g>
    </g>
  </g>
</svg>
