<svg xmlns="http://www.w3.org/2000/svg" xmlns:xlink="http://www.w3.org/1999/xlink" width="395" height="612" viewBox="0 0 395 612">
  <defs>
    <clipPath id="clip-njs">
      <rect width="395" height="612"/>
    </clipPath>
  </defs>
  <g id="njs" clip-path="url(#clip-njs)">
    <g id="Groupe_1122" data-name="Groupe 1122" transform="translate(-0.271 0.989)">
      <g id="Groupe_1032" data-name="Groupe 1032" transform="translate(132.61 514.673)">
        <g id="Groupe_1031" data-name="Groupe 1031">
          <g id="Groupe_1030" data-name="Groupe 1030">
            <g id="Groupe_1027" data-name="Groupe 1027" transform="translate(0 28.105)">
              <path id="Tracé_11869" data-name="Tracé 11869" d="M342.63,876.277,342.5,921.69l-39.526-22.82.129-45.413Z" transform="translate(-302.975 -853.457)"/>
            </g>
            <g id="Groupe_1028" data-name="Groupe 1028" transform="translate(39.526 22.82)">
              <path id="Tracé_11870" data-name="Tracé 11870" d="M360.706,873.861l48.362-28.105-.129,45.413-48.362,28.105Z" transform="translate(-360.578 -845.756)"/>
            </g>
            <g id="Groupe_1029" data-name="Groupe 1029" transform="translate(0.129)">
              <path id="Tracé_11871" data-name="Tracé 11871" d="M303.163,840.6l48.362-28.1,39.526,22.819-48.362,28.106Z" transform="translate(-303.163 -812.499)"/>
            </g>
          </g>
        </g>
      </g>
      <g id="Groupe_1038" data-name="Groupe 1038" transform="translate(33.856 457.24)">
        <g id="Groupe_1037" data-name="Groupe 1037">
          <g id="Groupe_1036" data-name="Groupe 1036">
            <g id="Groupe_1033" data-name="Groupe 1033" transform="translate(0 28.105)">
              <path id="Tracé_11872" data-name="Tracé 11872" d="M198.711,792.577l-.129,45.414L159.056,815.17l.129-45.413Z" transform="translate(-159.056 -769.757)"/>
            </g>
            <g id="Groupe_1034" data-name="Groupe 1034" transform="translate(39.526 22.82)">
              <path id="Tracé_11873" data-name="Tracé 11873" d="M216.787,790.161l48.362-28.105-.129,45.413-48.362,28.105Z" transform="translate(-216.659 -762.056)"/>
            </g>
            <g id="Groupe_1035" data-name="Groupe 1035" transform="translate(0.129)">
              <path id="Tracé_11874" data-name="Tracé 11874" d="M159.244,756.9l48.362-28.1,39.526,22.82-48.362,28.1Z" transform="translate(-159.244 -728.799)"/>
            </g>
          </g>
        </g>
      </g>
      <g id="Groupe_1070" data-name="Groupe 1070" transform="translate(0 0)">
        <g id="Groupe_1069" data-name="Groupe 1069">
          <g id="Groupe_1042" data-name="Groupe 1042" transform="translate(13.43 245.119)">
            <g id="Groupe_1039" data-name="Groupe 1039" transform="translate(0 109.609)">
              <path id="Tracé_11875" data-name="Tracé 11875" d="M310.408,683.731l-.418,147.54-180.7-104.327.418-147.54Z" transform="translate(-129.289 -579.404)" fill="#0c0c0c"/>
            </g>
            <g id="Groupe_1040" data-name="Groupe 1040" transform="translate(180.7 104.327)">
              <path id="Tracé_11876" data-name="Tracé 11876" d="M393.049,681.316,581.66,571.707l-.418,147.541L392.631,828.856Z" transform="translate(-392.631 -571.707)" fill="#050505"/>
            </g>
            <g id="Groupe_1041" data-name="Groupe 1041" transform="translate(0.418)">
              <path id="Tracé_11877" data-name="Tracé 11877" d="M129.9,529.276,318.51,419.667l180.7,104.327L310.6,633.6Z" transform="translate(-129.899 -419.667)" fill="#030303"/>
            </g>
          </g>
          <g id="Groupe_1064" data-name="Groupe 1064" transform="translate(0 39.035)">
            <g id="Groupe_1043" data-name="Groupe 1043" transform="translate(13.624 45.173)">
              <path id="Tracé_11878" data-name="Tracé 11878" d="M129.765,294.773,318.376,185.165l-.193,67.966L129.572,362.739Z" transform="translate(-129.572 -185.165)" fill="#080808"/>
            </g>
            <g id="Groupe_1044" data-name="Groupe 1044" transform="translate(13.624 113.139)">
              <path id="Tracé_11879" data-name="Tracé 11879" d="M129.572,393.823,318.183,284.214l180.7,104.325L310.268,498.148Z" transform="translate(-129.572 -284.214)" fill="#050505"/>
            </g>
            <g id="Groupe_1045" data-name="Groupe 1045" transform="translate(41.871 114.89)">
              <path id="Tracé_11880" data-name="Tracé 11880" d="M170.737,396.376,359.349,286.767l33.414,19.292L204.152,415.667Z" transform="translate(-170.737 -286.767)" fill="#44382f"/>
            </g>
            <g id="Groupe_1046" data-name="Groupe 1046" transform="translate(41.871 76.495)">
              <path id="Tracé_11881" data-name="Tracé 11881" d="M170.846,340.42,359.458,230.812l-.109,38.4L170.737,378.815Z" transform="translate(-170.737 -230.812)" fill="#645446"/>
            </g>
            <g id="Groupe_1047" data-name="Groupe 1047" transform="translate(41.98 76.495)">
              <path id="Tracé_11882" data-name="Tracé 11882" d="M170.9,340.42,359.507,230.812,392.922,250.1,204.31,359.712Z" transform="translate(-170.896 -230.812)"/>
            </g>
            <g id="Groupe_1048" data-name="Groupe 1048" transform="translate(41.871 186.104)">
              <path id="Tracé_11883" data-name="Tracé 11883" d="M204.261,409.84l-.109,38.4-33.414-19.292.109-38.4Z" transform="translate(-170.737 -390.549)"/>
            </g>
            <g id="Groupe_1049" data-name="Groupe 1049" transform="translate(75.285 95.787)">
              <path id="Tracé_11884" data-name="Tracé 11884" d="M219.542,368.535,408.153,258.926l-.109,38.4L219.433,406.93Z" transform="translate(-219.433 -258.926)"/>
            </g>
            <g id="Groupe_1050" data-name="Groupe 1050" transform="translate(134 168.081)">
              <path id="Tracé_11885" data-name="Tracé 11885" d="M305,473.892,493.612,364.283l33.414,19.292L338.414,493.184Z" transform="translate(-305 -364.283)" fill="#44382f"/>
            </g>
            <g id="Groupe_1051" data-name="Groupe 1051" transform="translate(134 129.685)">
              <path id="Tracé_11886" data-name="Tracé 11886" d="M305.109,417.937,493.72,308.328l-.109,38.4L305,456.332Z" transform="translate(-305 -308.328)" fill="#645446"/>
            </g>
            <g id="Groupe_1052" data-name="Groupe 1052" transform="translate(134.109 129.685)">
              <path id="Tracé_11887" data-name="Tracé 11887" d="M305.159,417.937,493.77,308.328l33.414,19.292L338.573,437.229Z" transform="translate(-305.159 -308.328)"/>
            </g>
            <g id="Groupe_1053" data-name="Groupe 1053" transform="translate(167.414 148.977)">
              <path id="Tracé_11888" data-name="Tracé 11888" d="M353.8,446.052,542.416,336.443l-.109,38.4L353.7,484.447Z" transform="translate(-353.696 -336.443)"/>
            </g>
            <g id="Groupe_1054" data-name="Groupe 1054" transform="translate(194.321 149.498)">
              <path id="Tracé_11889" data-name="Tracé 11889" d="M393.1,446.811,581.712,337.2l-.193,67.966L392.908,514.777Z" transform="translate(-392.908 -337.202)" fill="#645446"/>
            </g>
            <g id="Groupe_1055" data-name="Groupe 1055" transform="translate(13.625 154.782)">
              <path id="Tracé_11890" data-name="Tracé 11890" d="M129.766,344.9l180.7,104.325-.193,67.966-180.7-104.325Zm61.468,89.008.109-38.4-33.414-19.291-.109,38.4,33.414,19.291m92.129,53.19.109-38.4-33.414-19.292-.109,38.4L283.362,487.1" transform="translate(-129.573 -344.903)" fill="#cfaa8e"/>
            </g>
            <g id="Groupe_1056" data-name="Groupe 1056" transform="translate(13.817 45.174)">
              <path id="Tracé_11891" data-name="Tracé 11891" d="M129.854,294.774,318.465,185.166l180.7,104.325L310.55,399.1Z" transform="translate(-129.854 -185.166)" fill="#44382f"/>
            </g>
            <g id="Groupe_1057" data-name="Groupe 1057" transform="translate(0 146.811)">
              <path id="Tracé_11892" data-name="Tracé 11892" d="M109.717,494.172l.456-160.886,206.36,119.142-.456,160.886-11.811-6.82-180.7-104.327Zm13.817-152.915-.193,67.965,180.7,104.325.193-67.966-180.7-104.325" transform="translate(-109.717 -333.286)" fill="#121212"/>
            </g>
            <g id="Groupe_1058" data-name="Groupe 1058" transform="translate(134 239.294)">
              <path id="Tracé_11893" data-name="Tracé 11893" d="M305,506.461l33.414,19.292.109-38.4-33.414-19.292Z" transform="translate(-305 -468.066)"/>
            </g>
            <g id="Groupe_1059" data-name="Groupe 1059" transform="translate(0.456 37.202)">
              <path id="Tracé_11894" data-name="Tracé 11894" d="M110.381,283.157,298.992,173.548,505.353,292.69,316.741,402.3Z" transform="translate(-110.381 -173.548)" fill="#050505"/>
            </g>
            <g id="Groupe_1060" data-name="Groupe 1060" transform="translate(0.456 109.609)">
              <path id="Tracé_11895" data-name="Tracé 11895" d="M316.847,398.211l-.105,37.2L110.382,316.272l.105-37.2Z" transform="translate(-110.382 -279.07)" fill="#85090e"/>
            </g>
            <g id="Groupe_1061" data-name="Groupe 1061" transform="translate(206.36 156.344)">
              <path id="Tracé_11896" data-name="Tracé 11896" d="M410.909,456.788,599.52,347.179l-.456,160.886L410.453,617.674Z" transform="translate(-410.453 -347.179)" fill="#080808"/>
            </g>
            <g id="Groupe_1062" data-name="Groupe 1062" transform="translate(0.562)">
              <path id="Tracé_11897" data-name="Tracé 11897" d="M110.535,228.941,299.146,119.332l206.36,119.142L316.9,348.083Z" transform="translate(-110.535 -119.332)" fill="#310600"/>
            </g>
            <g id="Groupe_1063" data-name="Groupe 1063" transform="translate(206.816 119.142)">
              <path id="Tracé_11898" data-name="Tracé 11898" d="M411.224,402.572,599.835,292.963l-.105,37.2L411.118,439.774Z" transform="translate(-411.118 -292.963)" fill="#440900"/>
            </g>
          </g>
          <g id="Groupe_1068" data-name="Groupe 1068" transform="translate(0.561)">
            <g id="Groupe_1065" data-name="Groupe 1065" transform="translate(0 109.609)">
              <path id="Tracé_11899" data-name="Tracé 11899" d="M110.646,222.182l206.36,119.142-.11,39.035L110.535,261.217Z" transform="translate(-110.535 -222.182)" fill="#121212"/>
            </g>
            <g id="Groupe_1066" data-name="Groupe 1066" transform="translate(0.111)">
              <path id="Tracé_11900" data-name="Tracé 11900" d="M110.7,172.053,299.307,62.444l206.36,119.142L317.056,291.195Z" transform="translate(-110.696 -62.444)" fill="#050505"/>
            </g>
            <g id="Groupe_1067" data-name="Groupe 1067" transform="translate(206.36 119.142)">
              <path id="Tracé_11901" data-name="Tracé 11901" d="M411.382,345.683,599.993,236.075l-.111,39.035L411.272,384.718Z" transform="translate(-411.272 -236.075)" fill="#080808"/>
            </g>
          </g>
        </g>
      </g>
      <g id="Groupe_1080" data-name="Groupe 1080" transform="translate(267.477 391.168)">
        <g id="Groupe_1079" data-name="Groupe 1079">
          <g id="Groupe_1078" data-name="Groupe 1078">
            <g id="Groupe_1071" data-name="Groupe 1071" transform="translate(0.195 93.861)">
              <path id="Tracé_11902" data-name="Tracé 11902" d="M524.043,803.3l-24.181-14.053-.057-19.955,24.181,14.052Z" transform="translate(-499.805 -769.296)" fill="#8e7764"/>
            </g>
            <g id="Groupe_1072" data-name="Groupe 1072" transform="translate(24.374 82.26)">
              <path id="Tracé_11903" data-name="Tracé 11903" d="M578.569,752.39l.058,20.479L535.1,798l-.057-19.955,0-.524Z" transform="translate(-535.043 -752.39)" fill="#b79880"/>
            </g>
            <g id="Groupe_1073" data-name="Groupe 1073" transform="translate(0.193 93.337)">
              <path id="Tracé_11904" data-name="Tracé 11904" d="M523.986,783.109l-24.181-14.052,0-.523,24.181,14.052Z" transform="translate(-499.803 -768.534)" fill="#8e7764"/>
            </g>
            <g id="Groupe_1074" data-name="Groupe 1074" transform="translate(0.193 68.208)">
              <path id="Tracé_11905" data-name="Tracé 11905" d="M523.984,771.093,499.8,757.041l43.526-25.13,24.18,14.053Z" transform="translate(-499.803 -731.911)" fill="#c7a489"/>
            </g>
            <g id="Groupe_1075" data-name="Groupe 1075" transform="translate(0 25.129)">
              <path id="Tracé_11906" data-name="Tracé 11906" d="M523.9,751.915l-24.181-14.052-.2-68.731L523.7,683.184Z" transform="translate(-499.521 -669.132)" fill="#050505"/>
            </g>
            <g id="Groupe_1076" data-name="Groupe 1076" transform="translate(24.181 14.052)">
              <path id="Tracé_11907" data-name="Tracé 11907" d="M578.287,652.989l.194,68.207-43.526,25.13v.524l-.195-68.731Z" transform="translate(-534.761 -652.989)" fill="#050505"/>
            </g>
            <g id="Groupe_1077" data-name="Groupe 1077">
              <path id="Tracé_11908" data-name="Tracé 11908" d="M523.7,671.692l-24.181-14.053,43.526-25.129,24.181,14.052Z" transform="translate(-499.521 -632.51)" fill="#050505"/>
            </g>
          </g>
        </g>
      </g>
    </g>
  </g>
</svg>
